<svg width="1200" height="800" viewBox="0 0 1200 800" fill="none" xmlns="http://www.w3.org/2000/svg">
  <defs>
    <linearGradient id="bg" x1="0" y1="0" x2="1" y2="1">
      <stop offset="0" stop-color="#EEF2FF"/>
      <stop offset="1" stop-color="#E0E7FF"/>
    </linearGradient>
    <linearGradient id="accent" x1="0" y1="0" x2="1" y2="1">
      <stop offset="0" stop-color="#4F46E5"/>
      <stop offset="1" stop-color="#7C3AED"/>
    </linearGradient>
  </defs>
  <rect width="1200" height="800" rx="48" fill="url(#bg)"/>
  <rect x="80" y="80" width="1040" height="120" rx="28" fill="white"/>
  <rect x="120" y="120" width="220" height="16" rx="8" fill="#E2E8F0"/>
  <rect x="120" y="150" width="160" height="12" rx="6" fill="#CBD5F5"/>
  <rect x="80" y="240" width="520" height="440" rx="32" fill="white"/>
  <rect x="120" y="280" width="260" height="16" rx="8" fill="#E2E8F0"/>
  <rect x="120" y="320" width="360" height="200" rx="24" fill="#F8FAFF"/>
  <circle cx="220" cy="420" r="70" fill="url(#accent)" opacity="0.15"/>
  <circle cx="380" cy="420" r="70" fill="url(#accent)" opacity="0.2"/>
  <rect x="120" y="560" width="400" height="80" rx="16" fill="#F1F5F9"/>
  <rect x="640" y="240" width="480" height="220" rx="28" fill="white"/>
  <rect x="680" y="280" width="200" height="16" rx="8" fill="#E2E8F0"/>
  <rect x="680" y="320" width="360" height="120" rx="20" fill="#EEF2FF"/>
  <rect x="640" y="500" width="480" height="180" rx="28" fill="white"/>
  <rect x="680" y="540" width="240" height="16" rx="8" fill="#E2E8F0"/>
  <rect x="680" y="580" width="320" height="16" rx="8" fill="#CBD5F5"/>
  <rect x="680" y="620" width="200" height="16" rx="8" fill="#E2E8F0"/>
</svg>
