<svg width="720" height="520" viewBox="0 0 720 520" fill="none" xmlns="http://www.w3.org/2000/svg">
  <defs>
    <linearGradient id="bg" x1="0" y1="0" x2="1" y2="1">
      <stop offset="0" stop-color="#FFFFFF"/>
      <stop offset="1" stop-color="#F1F5F9"/>
    </linearGradient>
    <linearGradient id="accent" x1="0" y1="0" x2="1" y2="1">
      <stop offset="0" stop-color="#8B5CF6"/>
      <stop offset="1" stop-color="#EC4899"/>
    </linearGradient>
  </defs>
  <rect width="720" height="520" rx="28" fill="url(#bg)"/>
  <rect x="60" y="60" width="600" height="140" rx="24" fill="#FFFFFF"/>
  <rect x="90" y="90" width="220" height="20" rx="10" fill="#E2E8F0"/>
  <rect x="90" y="120" width="320" height="16" rx="8" fill="#CBD5F5"/>
  <rect x="90" y="180" width="220" height="36" rx="18" fill="#F1F5F9"/>
  <rect x="380" y="260" width="260" height="140" rx="24" fill="#FFFFFF"/>
  <rect x="410" y="290" width="180" height="16" rx="8" fill="#E2E8F0"/>
  <rect x="410" y="320" width="140" height="12" rx="6" fill="#CBD5F5"/>
  <circle cx="160" cy="350" r="90" fill="url(#accent)" opacity="0.15"/>
  <rect x="90" y="300" width="220" height="160" rx="24" fill="white"/>
  <rect x="120" y="330" width="160" height="16" rx="8" fill="#E2E8F0"/>
  <rect x="120" y="360" width="120" height="12" rx="6" fill="#CBD5F5"/>
  <rect x="120" y="390" width="180" height="14" rx="7" fill="#E2E8F0"/>
</svg>
